<svg xmlns="http://www.w3.org/2000/svg" width="760" height="430" viewBox="0 0 760 430" role="img" aria-label="بيك أب">
  <defs>
    <linearGradient id="car" x1="0" y1="0" x2="1" y2="1">
      <stop offset="0" stop-color="#38bdf8"/>
      <stop offset="1" stop-color="#f97316"/>
    </linearGradient>
    <filter id="shadow" x="-20%" y="-20%" width="140%" height="140%">
      <feDropShadow dx="0" dy="24" stdDeviation="18" flood-color="#020617" flood-opacity=".25"/>
    </filter>
  </defs>
  <rect width="760" height="430" rx="40" fill="#f8fafc"/>
  <circle cx="130" cy="90" r="70" fill="#facc15" opacity=".16"/>
  <circle cx="650" cy="345" r="92" fill="#22c55e" opacity=".12"/>
  <ellipse cx="380" cy="318" rx="290" ry="32" fill="#0f172a" opacity=".12"/>
  <g filter="url(#shadow)">
    <path d="M120 252 L150 190 C160 166 180 154 210 154 H360 L392 190 H522 C542 190 558 205 568 252" fill="url(#car)" stroke="#111827" stroke-width="8" stroke-linejoin="round"/>
    <path d="M250 172 H410 C432 172 450 184 465 204 L482 228 H214 L236 190 C242 180 246 174 250 172Z" fill="#0f172a" opacity=".78"/>
    <rect x="150" y="236" width="410" height="38" rx="16" fill="#111827" opacity=".18"/>
    <circle cx="225" cy="262" r="48" fill="#111827"/>
    <circle cx="488" cy="262" r="48" fill="#111827"/>
    <circle cx="225" cy="262" r="20" fill="#cbd5e1"/>
    <circle cx="488" cy="262" r="20" fill="#cbd5e1"/>
  </g>
  <text x="380" y="382" text-anchor="middle" font-family="Arial, Tahoma, sans-serif" font-size="32" font-weight="900" fill="#0f172a">بيك أب</text>
</svg>