<svg xmlns="http://www.w3.org/2000/svg" width="760" height="430" viewBox="0 0 760 430" role="img" aria-label="دفع رباعي">
  <defs>
    <linearGradient id="car" x1="0" y1="0" x2="1" y2="1">
      <stop offset="0" stop-color="#22c55e"/>
      <stop offset="1" stop-color="#f97316"/>
    </linearGradient>
    <filter id="shadow" x="-20%" y="-20%" width="140%" height="140%">
      <feDropShadow dx="0" dy="24" stdDeviation="18" flood-color="#020617" flood-opacity=".25"/>
    </filter>
  </defs>
  <rect width="760" height="430" rx="40" fill="#f8fafc"/>
  <circle cx="130" cy="90" r="70" fill="#facc15" opacity=".16"/>
  <circle cx="650" cy="345" r="92" fill="#22c55e" opacity=".12"/>
  <ellipse cx="380" cy="318" rx="290" ry="32" fill="#0f172a" opacity=".12"/>
  <g filter="url(#shadow)">
    <path d="M130 250 L158 180 C168 154 190 142 222 142 H438 C470 142 492 158 508 188 L558 250" fill="url(#car)" stroke="#111827" stroke-width="8" stroke-linejoin="round"/>
    <path d="M250 172 H410 C432 172 450 184 465 204 L482 228 H214 L236 190 C242 180 246 174 250 172Z" fill="#0f172a" opacity=".78"/>
    <rect x="150" y="236" width="410" height="38" rx="16" fill="#111827" opacity=".18"/>
    <circle cx="235" cy="260" r="48" fill="#111827"/>
    <circle cx="485" cy="260" r="48" fill="#111827"/>
    <circle cx="235" cy="260" r="20" fill="#cbd5e1"/>
    <circle cx="485" cy="260" r="20" fill="#cbd5e1"/>
  </g>
  <text x="380" y="382" text-anchor="middle" font-family="Arial, Tahoma, sans-serif" font-size="32" font-weight="900" fill="#0f172a">دفع رباعي</text>
</svg>